<svg width="220" height="220" viewBox="0 0 220 220" fill="none" xmlns="http://www.w3.org/2000/svg">
<path d="M113.462 15V6.904L110.118 13.048H109.062L105.702 6.904V15H103.91V3.64H105.83L109.59 10.584L113.35 3.64H115.27V15H113.462Z" fill="black"/>
<path d="M122.85 15.9213L124.584 4.6944L126.355 4.96795L124.621 16.1948L122.85 15.9213Z" fill="black"/>
<path d="M137.298 10.7121L134.875 18.3697L133.166 17.8291L136.594 6.99847L137.997 7.4426L141.653 17.2087L144.125 9.39853L145.848 9.94404L142.426 20.7594L140.931 20.2863L137.298 10.7121Z" fill="black"/>
<path d="M147.332 22.718L152.373 12.5375L155.986 14.3266C157.085 14.8709 157.889 15.5547 158.398 16.378C158.912 17.1917 159.158 18.0756 159.138 19.0298C159.132 19.9791 158.898 20.9221 158.434 21.8589C157.923 22.8913 157.272 23.6881 156.483 24.2493C155.702 24.8152 154.835 25.1239 153.882 25.1754C152.928 25.2268 151.949 25.004 150.945 24.507L147.332 22.718ZM156.799 21.0496C157.154 20.3326 157.333 19.6355 157.335 18.9581C157.351 18.2759 157.187 17.6588 156.841 17.1067C156.51 16.5499 155.99 16.0964 155.283 15.7461L153.276 14.7522L149.641 22.0936L151.648 23.0875C152.365 23.4425 153.048 23.5782 153.696 23.4945C154.354 23.4156 154.949 23.1629 155.482 22.7362C156.015 22.3096 156.454 21.7474 156.799 21.0496Z" fill="black"/>
<path d="M163.271 24.6523C163.67 24.0852 164.16 23.6018 164.741 23.202C165.329 22.7935 165.971 22.5018 166.667 22.3268C167.379 22.1493 168.106 22.126 168.849 22.2571C169.597 22.3794 170.325 22.689 171.032 23.1861C171.869 23.7752 172.458 24.4765 172.799 25.29C173.146 26.0947 173.259 26.898 173.138 27.7L171.444 27.662C171.533 27.1641 171.519 26.711 171.402 26.3027C171.294 25.9004 171.113 25.5453 170.861 25.2371C170.617 24.9351 170.346 24.6797 170.05 24.4711C169.561 24.1274 169.063 23.927 168.555 23.87C168.054 23.8042 167.563 23.8437 167.083 23.9885C166.612 24.1395 166.17 24.3696 165.756 24.6789C165.352 24.9943 165.009 25.3527 164.726 25.754C164.413 26.199 164.184 26.683 164.038 27.2061C163.897 27.7205 163.845 28.2311 163.879 28.7381C163.929 29.2424 164.072 29.715 164.31 30.156C164.548 30.5969 164.884 30.9708 165.321 31.2777C165.617 31.4863 165.964 31.6518 166.36 31.7742C166.757 31.8966 167.167 31.9438 167.591 31.9159C168.03 31.8855 168.456 31.7422 168.871 31.4863L169.6 33.036C169.083 33.3633 168.506 33.5442 167.869 33.5786C167.24 33.6191 166.615 33.5443 165.992 33.3542C165.378 33.1701 164.827 32.9063 164.339 32.5626C163.684 32.1024 163.182 31.5468 162.831 30.8958C162.487 30.2362 162.278 29.5414 162.204 28.8116C162.137 28.073 162.193 27.3435 162.374 26.623C162.561 25.8937 162.86 25.2369 163.271 24.6523Z" fill="black"/>
<path d="M182.36 32.5738L183.582 33.7498L178.886 44.9971L177.526 43.6879L178.803 40.6308L175.644 37.5908L172.649 38.9948L171.278 37.6745L182.36 32.5738ZM179.47 39.4299L181.606 34.5798L176.795 36.8559L179.47 39.4299Z" fill="black"/>
<path d="M182.227 48.8556L191.262 41.9688L194.259 45.9008C194.569 46.308 194.769 46.7459 194.858 47.2145C194.947 47.6832 194.945 48.1472 194.853 48.6066C194.767 49.0745 194.602 49.5089 194.357 49.9097C194.12 50.3191 193.818 50.6627 193.453 50.9408C193.055 51.2447 192.618 51.4636 192.143 51.5974C191.669 51.7313 191.196 51.7627 190.726 51.6917C190.263 51.6292 189.836 51.4651 189.446 51.1993L187.63 55.9432L186.408 54.3399L188.057 49.9845L186.457 47.8849L183.314 50.2807L182.227 48.8556ZM187.716 46.9247L189.617 49.4187C189.818 49.6817 190.072 49.8568 190.38 49.944C190.688 50.0312 191.014 50.0371 191.359 49.9619C191.713 49.8802 192.042 49.723 192.348 49.4902C192.662 49.2509 192.89 48.9697 193.032 48.6464C193.183 48.3167 193.251 47.9834 193.236 47.6464C193.227 47.3179 193.125 47.0264 192.931 46.772L191.088 44.3543L187.716 46.9247Z" fill="black"/>
<path d="M195.986 67.1761L194.595 67.9328L190.873 61.0874L200.852 55.6605L204.506 62.3794L203.114 63.1361L200.317 57.9915L197.478 59.5355L199.901 63.9913L198.593 64.7022L196.17 60.2464L193.12 61.905L195.986 67.1761Z" fill="black"/>
<path d="M214.444 93.9357L201.809 88.4491L201.437 86.5328L214.073 92.0194L214.444 93.9357Z" fill="black"/>
<path d="M203.067 124.144L211.11 125.073L205.39 121.046L205.511 119.997L212 117.364L203.957 116.435L204.163 114.655L215.448 115.958L215.228 117.865L207.898 120.804L214.365 125.336L214.145 127.243L202.86 125.94L203.067 124.144Z" fill="black"/>
<path d="M201.076 133.364L212.029 136.375L211.555 138.103L200.601 135.092L201.076 133.364Z" fill="black"/>
<path d="M204.593 148.315L197.264 145.029L197.997 143.394L208.363 148.041L207.761 149.384L197.64 151.896L205.115 155.247L204.376 156.896L194.024 152.256L194.666 150.825L204.593 148.315Z" fill="black"/>
<path d="M191.516 156.905L201.051 163.08L198.86 166.465C198.193 167.494 197.421 168.215 196.545 168.626C195.678 169.043 194.771 169.186 193.826 169.057C192.883 168.942 191.974 168.601 191.096 168.033C190.129 167.406 189.412 166.669 188.945 165.82C188.473 164.98 188.265 164.083 188.324 163.13C188.382 162.177 188.716 161.23 189.324 160.29L191.516 156.905ZM192.088 166.502C192.759 166.936 193.431 167.194 194.104 167.274C194.78 167.368 195.412 167.275 196 166.995C196.591 166.73 197.101 166.266 197.53 165.604L198.748 163.723L191.871 159.271L190.654 161.151C190.219 161.822 190.006 162.485 190.015 163.139C190.018 163.801 190.2 164.422 190.563 165C190.926 165.578 191.434 166.078 192.088 166.502Z" fill="black"/>
<path d="M187.766 172.518C188.284 172.979 188.708 173.521 189.039 174.144C189.377 174.774 189.593 175.446 189.687 176.158C189.782 176.885 189.722 177.61 189.506 178.333C189.299 179.063 188.908 179.75 188.333 180.395C187.652 181.159 186.888 181.664 186.04 181.909C185.201 182.162 184.39 182.182 183.607 181.97L183.839 180.291C184.324 180.437 184.775 180.475 185.195 180.406C185.607 180.344 185.98 180.205 186.315 179.99C186.643 179.782 186.928 179.543 187.169 179.272C187.567 178.826 187.823 178.354 187.938 177.857C188.061 177.366 188.078 176.874 187.989 176.38C187.893 175.895 187.715 175.429 187.455 174.983C187.188 174.545 186.871 174.163 186.505 173.837C186.099 173.475 185.645 173.191 185.142 172.986C184.647 172.788 184.146 172.677 183.638 172.653C183.131 172.644 182.645 172.733 182.18 172.918C181.715 173.104 181.305 173.395 180.95 173.794C180.709 174.064 180.504 174.39 180.337 174.769C180.17 175.149 180.076 175.551 180.055 175.976C180.035 176.415 180.129 176.855 180.335 177.297L178.712 177.843C178.446 177.292 178.333 176.698 178.372 176.061C178.404 175.432 178.55 174.819 178.81 174.223C179.063 173.634 179.389 173.117 179.786 172.671C180.318 172.073 180.928 171.638 181.615 171.364C182.309 171.098 183.024 170.97 183.757 170.98C184.498 170.998 185.217 171.138 185.912 171.4C186.615 171.67 187.233 172.042 187.766 172.518Z" fill="black"/>
<path d="M177.708 190.572L176.4 191.651L165.765 185.696L167.222 184.495L170.112 186.114L173.494 183.325L172.443 180.189L173.912 178.978L177.708 190.572ZM171.229 186.915L175.802 189.593L174.092 184.553L171.229 186.915Z" fill="black"/>
<path d="M161.549 188.573L167.354 198.338L163.104 200.864C162.664 201.126 162.206 201.274 161.731 201.308C161.255 201.343 160.794 201.288 160.348 201.144C159.893 201.005 159.481 200.791 159.111 200.502C158.731 200.219 158.424 199.88 158.19 199.486C157.934 199.055 157.766 198.596 157.688 198.109C157.609 197.622 157.632 197.149 157.757 196.691C157.872 196.237 158.084 195.832 158.393 195.475L153.888 193.127L155.621 192.097L159.759 194.235L162.028 192.886L160.009 189.489L161.549 188.573ZM162.838 194.247L160.142 195.85C159.858 196.019 159.655 196.251 159.533 196.547C159.411 196.843 159.367 197.166 159.403 197.518C159.443 197.878 159.562 198.224 159.758 198.554C159.96 198.893 160.213 199.152 160.518 199.331C160.828 199.518 161.151 199.624 161.488 199.647C161.815 199.676 162.116 199.609 162.391 199.445L165.004 197.892L162.838 194.247Z" fill="black"/>
<path d="M141.771 200.14L141.179 198.671L148.406 195.758L152.653 206.295L145.559 209.154L144.967 207.685L150.399 205.496L149.191 202.498L144.486 204.394L143.93 203.014L148.634 201.118L147.336 197.897L141.771 200.14Z" fill="black"/>
<path d="M113.072 215.407L119.971 203.484L121.917 203.335L115.018 215.258L113.072 215.407Z" fill="black"/>
<path d="M84.3671 200.641L82.5224 208.524L87.1783 203.304L88.2066 203.544L90.0782 210.292L91.9229 202.409L93.6678 202.818L91.0794 213.879L89.2099 213.441L87.131 205.823L81.8877 211.728L80.0182 211.29L82.6066 200.229L84.3671 200.641Z" fill="black"/>
<path d="M75.4362 197.605L71.1896 208.141L69.5275 207.472L73.7741 196.935L75.4362 197.605Z" fill="black"/>
<path d="M60.1812 199.385L64.2857 192.481L65.826 193.397L60.0208 203.162L58.7556 202.409L57.4212 192.067L53.235 199.109L51.6809 198.185L57.4779 188.434L58.8257 189.235L60.1812 199.385Z" fill="black"/>
<path d="M53.1468 185.409L45.9191 194.173L42.8085 191.608C41.8621 190.827 41.235 189.978 40.9271 189.061C40.6124 188.151 40.5736 187.234 40.8106 186.31C41.0326 185.387 41.4761 184.522 42.1412 183.716C42.8741 182.827 43.689 182.199 44.5858 181.833C45.4743 181.459 46.3889 181.356 47.3293 181.524C48.2698 181.691 49.1721 182.131 50.0362 182.843L53.1468 185.409ZM43.5484 184.876C43.0394 185.493 42.7067 186.131 42.5503 186.791C42.3788 187.451 42.3985 188.089 42.6092 188.706C42.805 189.323 43.2073 189.883 43.8163 190.386L45.5444 191.811L50.7565 185.491L49.0284 184.066C48.4112 183.557 47.7774 183.269 47.1269 183.203C46.4683 183.129 45.831 183.24 45.2152 183.534C44.5994 183.828 44.0438 184.275 43.5484 184.876Z" fill="black"/>
<path d="M38.0676 179.894C37.55 180.355 36.9627 180.714 36.3057 180.971C35.6408 181.235 34.9492 181.372 34.2308 181.384C33.4973 181.395 32.7841 181.252 32.091 180.955C31.3899 180.665 30.752 180.198 30.1771 179.553C29.4958 178.788 29.082 177.971 28.9356 177.102C28.7812 176.239 28.8542 175.431 29.1544 174.678L30.7959 175.101C30.5954 175.565 30.5056 176.01 30.5266 176.434C30.5404 176.85 30.6352 177.237 30.8111 177.595C30.9798 177.945 31.1849 178.255 31.4261 178.526C31.8236 178.971 32.2629 179.28 32.7441 179.451C33.2174 179.63 33.7042 179.703 34.2047 179.671C34.698 179.632 35.1811 179.508 35.6538 179.301C36.1195 179.086 36.5355 178.816 36.9018 178.489C37.3079 178.127 37.6418 177.708 37.9034 177.232C38.157 176.763 38.3247 176.278 38.4064 175.777C38.4731 175.274 38.441 174.781 38.3102 174.298C38.1793 173.814 37.9365 173.374 37.5816 172.975C37.3404 172.705 37.0406 172.465 36.6825 172.255C36.3244 172.046 35.9357 171.906 35.5167 171.837C35.0825 171.766 34.6343 171.809 34.1721 171.963L33.8152 170.288C34.3934 170.087 34.9966 170.043 35.6248 170.154C36.2459 170.258 36.8379 170.474 37.4008 170.801C37.9566 171.12 38.4332 171.502 38.8307 171.948C39.3629 172.545 39.7256 173.201 39.9188 173.915C40.1039 174.635 40.1492 175.359 40.0544 176.087C39.9517 176.821 39.7303 177.519 39.3901 178.179C39.0419 178.847 38.6011 179.418 38.0676 179.894Z" fill="black"/>
<path d="M21.2861 167.831L20.3642 166.407L27.499 156.526L28.5253 158.111L26.5856 160.796L28.9686 164.476L32.2041 163.791L33.2391 165.39L21.2861 167.831ZM25.6622 161.814L22.477 166.05L27.68 164.929L25.6622 161.814Z" fill="black"/>
<path d="M25.125 152.008L14.759 156.655L12.7365 152.143C12.5271 151.676 12.4324 151.204 12.4526 150.728C12.4727 150.251 12.5801 149.8 12.7748 149.373C12.9651 148.937 13.2248 148.552 13.5541 148.217C13.879 147.873 14.2507 147.607 14.6692 147.419C15.1267 147.214 15.6018 147.101 16.0945 147.079C16.5872 147.056 17.0542 147.133 17.4956 147.31C17.9326 147.476 18.3109 147.733 18.6304 148.081L21.4794 143.876L22.3041 145.715L19.7058 149.58L20.7857 151.989L24.392 150.373L25.125 152.008ZM19.3403 152.637L18.0575 149.776C17.9222 149.474 17.7146 149.245 17.4347 149.09C17.1548 148.935 16.8383 148.855 16.4852 148.85C16.1224 148.849 15.7658 148.927 15.4154 149.084C15.0552 149.245 14.7689 149.467 14.5565 149.749C14.3343 150.036 14.1923 150.345 14.1306 150.677C14.0645 150.999 14.0968 151.306 14.2278 151.598L15.4713 154.372L19.3403 152.637Z" fill="black"/>
<path d="M15.9019 131.034L17.4293 130.614L19.494 138.128L8.54009 141.138L6.51351 133.763L8.04089 133.344L9.59262 138.99L12.7091 138.134L11.3651 133.243L12.7999 132.849L14.1439 137.74L17.4918 136.82L15.9019 131.034Z" fill="black"/>
<path d="M4.0271 100.773L15.0803 108.994L15.0055 110.945L3.95233 102.723L4.0271 100.773Z" fill="black"/>
<path d="M21.9878 73.951L14.3684 71.2144L19.0204 76.4383L18.6635 77.4322L11.7454 78.5176L19.3648 81.2542L18.7591 82.9407L8.06776 79.1009L8.71675 77.2939L16.523 76.1024L11.2586 70.2165L11.9076 68.4095L22.599 72.2494L21.9878 73.951Z" fill="black"/>
<path d="M26.0281 65.4273L16.0482 60.0004L16.9042 58.4261L26.8841 63.853L26.0281 65.4273Z" fill="black"/>
<path d="M26.0091 50.0688L32.3969 54.938L31.3106 56.3631L22.2761 49.4764L23.1684 48.3057L33.5954 48.1663L27.0804 43.2001L28.1764 41.7622L37.1982 48.6392L36.2477 49.8863L26.0091 50.0688Z" fill="black"/>
<path d="M40.7 44.6837L32.8226 36.4986L35.7277 33.7027C36.6116 32.8521 37.5269 32.3264 38.4737 32.1258C39.4132 31.9175 40.3285 31.9841 41.2196 32.3255C42.1111 32.6519 42.9193 33.1917 43.6441 33.9449C44.443 34.7749 44.973 35.6564 45.2343 36.5893C45.5032 37.5148 45.5007 38.4351 45.2266 39.3502C44.9526 40.2653 44.4121 41.1112 43.6051 41.8878L40.7 44.6837ZM42.3299 35.2097C41.7752 34.6333 41.1794 34.2296 40.5426 33.9986C39.9061 33.7525 39.2696 33.6989 38.6333 33.8375C37.9972 33.9612 37.3949 34.2966 36.8261 34.844L35.2122 36.3973L40.8928 42.2998L42.5067 40.7465C43.0831 40.1917 43.4416 39.5951 43.5821 38.9566C43.7302 38.3106 43.6936 37.6649 43.4721 37.0195C43.2506 36.374 42.8699 35.7707 42.3299 35.2097Z" fill="black"/>
<path d="M47.9083 30.3364C47.5094 29.7693 47.22 29.1448 47.0402 28.4627C46.8543 27.7719 46.7967 27.069 46.8677 26.354C46.9411 25.6242 47.165 24.9321 47.5393 24.2776C47.9074 23.6144 48.4448 23.0342 49.1515 22.5371C49.9891 21.948 50.8482 21.6306 51.729 21.5849C52.6036 21.5305 53.3979 21.6956 54.1118 22.0802L53.5032 23.6624C53.0649 23.41 52.6337 23.2698 52.2099 23.2419C51.7947 23.2079 51.3994 23.2578 51.024 23.3914C50.6572 23.519 50.3255 23.6871 50.0289 23.8957C49.5403 24.2394 49.1834 24.6404 48.9581 25.0988C48.7267 25.5485 48.598 26.0237 48.572 26.5245C48.5548 27.0192 48.6219 27.5132 48.7733 28.0065C48.9335 28.4938 49.1547 28.9381 49.437 29.3394C49.75 29.7844 50.1279 30.1641 50.5708 30.4785C51.0075 30.7843 51.4703 31.0065 51.9591 31.1452C52.4505 31.269 52.9438 31.2937 53.4391 31.2192C53.9344 31.1446 54.4002 30.9539 54.8364 30.6471C55.133 30.4385 55.4059 30.1683 55.6551 29.8365C55.9043 29.5048 56.0874 29.1347 56.2044 28.7263C56.3241 28.3031 56.3335 27.8531 56.2328 27.3762L57.9378 27.2137C58.0711 27.8111 58.0462 28.4154 57.8632 29.0267C57.689 29.6318 57.4071 30.1952 57.0177 30.7169C56.637 31.2324 56.2024 31.6621 55.7138 32.0057C55.0594 32.466 54.3667 32.7511 53.6355 32.8611C52.8982 32.9624 52.1737 32.9243 51.462 32.7468C50.7441 32.5605 50.0767 32.2605 49.4597 31.8469C48.8366 31.4245 48.3194 30.921 47.9083 30.3364Z" fill="black"/>
<path d="M61.8157 15.049L63.3356 14.2964L72.3337 22.5174L70.6417 23.3552L68.1961 21.1203L64.2673 23.0655L64.5765 26.3582L62.8702 27.2031L61.8157 15.049ZM67.2914 20.0863L63.4489 16.4364L63.9648 21.7334L67.2914 20.0863Z" fill="black"/>
<path d="M77.0943 20.6773L73.6668 9.84673L78.3803 8.35503C78.8685 8.20055 79.3481 8.16063 79.8193 8.23529C80.2904 8.30995 80.7266 8.46841 81.1277 8.71067C81.539 8.94972 81.892 9.25197 82.1866 9.61743C82.4915 9.97967 82.7131 10.3794 82.8515 10.8167C83.0027 11.2947 83.0611 11.7797 83.0266 12.2717C82.9921 12.7637 82.862 13.2188 82.6364 13.6371C82.4209 14.0521 82.1221 14.3984 81.7401 14.6759L85.591 17.9884L83.6689 18.5967L80.1274 15.5723L77.6104 16.3688L78.8028 20.1366L77.0943 20.6773ZM77.1325 14.8586L80.1223 13.9124C80.4376 13.8127 80.6883 13.6326 80.8744 13.3723C81.0605 13.1121 81.1765 12.8068 81.2224 12.4567C81.265 12.0964 81.2283 11.7332 81.1125 11.3671C80.9934 10.9908 80.8058 10.6809 80.5498 10.4375C80.2905 10.1839 79.9997 10.0074 79.6774 9.90806C79.3652 9.80547 79.0566 9.80245 78.7515 9.899L75.8532 10.8162L77.1325 14.8586Z" fill="black"/>
<path d="M98.9875 13.9204L99.2293 15.4859L91.5286 16.6753L89.7945 5.44846L97.3529 4.281L97.5947 5.84643L91.8073 6.74035L92.3007 9.93447L97.3132 9.16023L97.5404 10.6308L92.5278 11.405L93.0578 14.8363L98.9875 13.9204Z" fill="black"/>
</svg>
