<svg width="76" height="66" viewBox="0 0 76 66" fill="none" xmlns="http://www.w3.org/2000/svg">
<path d="M69.6854 35.3813L38.0352 66L6.3849 35.3813C4.29727 33.397 2.65288 31.012 1.55527 28.3764C0.457661 25.7409 -0.0693857 22.9119 0.00731699 20.0676C0.0840197 17.2233 0.762811 14.4253 2.00095 11.8499C3.23908 9.27441 5.00974 6.97726 7.20142 5.10306C9.3931 3.22886 11.9583 1.81823 14.7356 0.959979C17.5128 0.101733 20.4419 -0.185529 23.3383 0.116278C26.2348 0.418085 29.0359 1.30242 31.5653 2.71361C34.0947 4.12479 36.2976 6.03226 38.0352 8.31588C39.7803 6.04883 41.9857 4.15804 44.5133 2.76183C47.041 1.36562 49.8365 0.494057 52.7248 0.201681C55.6132 -0.0906944 58.5322 0.202415 61.2993 1.06266C64.0663 1.92291 66.6218 3.33178 68.8058 5.2011C70.9897 7.07041 72.7552 9.35993 73.9916 11.9264C75.2281 14.4928 75.9089 17.2809 75.9915 20.1161C76.074 22.9514 75.5566 25.7728 74.4715 28.4037C73.3864 31.0347 71.7571 33.4185 69.6854 35.4061" fill="white"/>
</svg>
