<svg width="20" height="20" viewBox="0 0 20 20" fill="none" xmlns="http://www.w3.org/2000/svg">
<path d="M15.0625 4.9375V4.94875M1 5.5C1 4.30653 1.47411 3.16193 2.31802 2.31802C3.16193 1.47411 4.30653 1 5.5 1H14.5C15.6935 1 16.8381 1.47411 17.682 2.31802C18.5259 3.16193 19 4.30653 19 5.5V14.5C19 15.6935 18.5259 16.8381 17.682 17.682C16.8381 18.5259 15.6935 19 14.5 19H5.5C4.30653 19 3.16193 18.5259 2.31802 17.682C1.47411 16.8381 1 15.6935 1 14.5V5.5ZM6.625 10C6.625 10.8951 6.98058 11.7536 7.61351 12.3865C8.24645 13.0194 9.10489 13.375 10 13.375C10.8951 13.375 11.7536 13.0194 12.3865 12.3865C13.0194 11.7536 13.375 10.8951 13.375 10C13.375 9.10489 13.0194 8.24645 12.3865 7.61351C11.7536 6.98058 10.8951 6.625 10 6.625C9.10489 6.625 8.24645 6.98058 7.61351 7.61351C6.98058 8.24645 6.625 9.10489 6.625 10Z" stroke="#272727" stroke-linecap="round" stroke-linejoin="round"/>
</svg>
