<svg width="26" height="18" viewBox="0 0 26 18" fill="none" xmlns="http://www.w3.org/2000/svg">
<path d="M13 6.56533C15.3548 2.85333 17.4202 1 19.1976 1C21.8644 1 23.5484 3.95067 24.5311 7.956C25.4698 11.7813 25.1978 17 21.8644 17C20.379 17 18.3336 14.9133 16.3335 12.1307C15.0608 10.3772 13.9453 8.51486 13 6.56533ZM13 6.56533C10.6452 2.85333 8.57981 1 6.80241 1C4.13563 1 2.45156 3.95067 1.46885 7.956C0.530149 11.7813 0.802161 17 4.13563 17C5.62102 17 7.66644 14.9133 9.66652 12.1307C10.9999 10.276 12.1106 8.42 13 6.56533Z" stroke="#272727" stroke-linecap="round" stroke-linejoin="round"/>
</svg>
