<svg width="20" height="20" viewBox="0 0 20 20" fill="none" xmlns="http://www.w3.org/2000/svg">
<path d="M7 7.98312C7 8.11573 7.05268 8.24291 7.14645 8.33668C7.24021 8.43045 7.36739 8.48312 7.5 8.48312C7.63261 8.48312 7.75979 8.43045 7.85355 8.33668C7.94732 8.24291 8 8.11573 8 7.98312V6.98312C8 6.85052 7.94732 6.72334 7.85355 6.62957C7.75979 6.5358 7.63261 6.48312 7.5 6.48312C7.36739 6.48312 7.24021 6.5358 7.14645 6.62957C7.05268 6.72334 7 6.85052 7 6.98312V7.98312ZM7 7.98312C7 9.30921 7.52678 10.581 8.46447 11.5187C9.40215 12.4563 10.6739 12.9831 12 12.9831M12 12.9831H13C13.1326 12.9831 13.2598 12.9304 13.3536 12.8367C13.4473 12.7429 13.5 12.6157 13.5 12.4831C13.5 12.3505 13.4473 12.2233 13.3536 12.1296C13.2598 12.0358 13.1326 11.9831 13 11.9831H12C11.8674 11.9831 11.7402 12.0358 11.6464 12.1296C11.5527 12.2233 11.5 12.3505 11.5 12.4831C11.5 12.6157 11.5527 12.7429 11.6464 12.8367C11.7402 12.9304 11.8674 12.9831 12 12.9831ZM1 18.9831L2.65 15.1831C1.38766 13.3912 0.822667 11.2002 1.06104 9.02123C1.29942 6.8423 2.32479 4.82526 3.94471 3.34864C5.56463 1.87203 7.66775 1.03734 9.85938 1.00122C12.051 0.965109 14.1805 1.73005 15.8482 3.1525C17.5159 4.57494 18.6071 6.5571 18.9172 8.72699C19.2272 10.8969 18.7347 13.1053 17.5321 14.9379C16.3295 16.7705 14.4994 18.1011 12.3854 18.6802C10.2713 19.2593 8.01863 19.047 6.05 18.0831L1 18.9831Z" stroke="#272727" stroke-linecap="round" stroke-linejoin="round"/>
</svg>
